<svg width="16" height="18" viewBox="0 0 16 18" fill="none" xmlns="http://www.w3.org/2000/svg">
<path d="M2.8694 2.80641C5.70307 -0.0272664 10.2974 -0.0272664 13.131 2.80641C15.9647 5.64008 15.9647 10.2344 13.131 13.0681L12.1419 14.0463C11.4129 14.7618 10.4669 15.6818 9.3037 16.8064C8.57679 17.5093 7.42362 17.5092 6.69687 16.8063L3.78762 13.9763C3.42199 13.6173 3.11593 13.3146 2.8694 13.0681C0.035722 10.2344 0.035722 5.64008 2.8694 2.80641ZM12.2471 3.69029C9.90162 1.34477 6.0988 1.34477 3.75328 3.69029C1.40776 6.03581 1.40776 9.83867 3.75328 12.1842L4.99251 13.4071C5.67493 14.0749 6.53279 14.9086 7.56587 15.9078C7.80812 16.142 8.19254 16.1421 8.43479 15.9078L11.2639 13.1566C11.6547 12.773 11.9825 12.4488 12.2471 12.1842C14.5927 9.83867 14.5927 6.03581 12.2471 3.69029ZM8.0002 5.66528C9.38162 5.66528 10.5015 6.78515 10.5015 8.16658C10.5015 9.548 9.38162 10.6678 8.0002 10.6678C6.61879 10.6678 5.49893 9.548 5.49893 8.16658C5.49893 6.78515 6.61879 5.66528 8.0002 5.66528ZM8.0002 6.91528C7.30912 6.91528 6.74895 7.4755 6.74895 8.16658C6.74895 8.85767 7.30912 9.41783 8.0002 9.41783C8.69129 9.41783 9.25154 8.85767 9.25154 8.16658C9.25154 7.4755 8.69129 6.91528 8.0002 6.91528Z" fill="#252525"/>
</svg>
